PathFileType	4	(X/Y/Z)	TYPE-2_1685523821198
DataRate	CameraRate	NumFrames	NumMarkers	Units	OrigDataRate	OrigDataStartFrame	OrigNumFrames
60.00	60.00	       17	13	mm  	60.00	1	       199
Frame#	Time	H			R			B			RF			RK			RB			RA			RD			LF			LK			LB			LA			LD			
		X1	Y1	Z1	X2	Y2	Z2	X3	Y3	Z3	X4	Y4	Z4	X5	Y5	Z5	X6	Y6	Z6	X7	Y7	Z7	X8	Y8	Z8	X9	Y9	Z9	X10	Y10	Z10	X11	Y11	Z11	X12	Y12	Z12	X13	Y13	Z13	
1	0.000000	0.000000	0.000000	0.000000	0.000000	0.000000	0.000000	0.000000	0.000000	0.000000	-1392.188046	597.748324	15.348268	0.000000	0.000000	0.000000	0.000000	0.000000	0.000000	0.000000	0.000000	0.000000	-1414.209474	110.107143	-72.403788	0.000000	0.000000	0.000000	0.000000	0.000000	0.000000	0.000000	0.000000	0.000000	0.000000	0.000000	0.000000	0.000000	0.000000	0.000000	
2	0.016667	0.000000	0.000000	0.000000	0.000000	0.000000	0.000000	0.000000	0.000000	0.000000	-1362.992970	599.750273	11.010714	0.000000	0.000000	0.000000	0.000000	0.000000	0.000000	0.000000	0.000000	0.000000	-1338.302277	104.768615	-72.070130	0.000000	0.000000	0.000000	0.000000	0.000000	0.000000	0.000000	0.000000	0.000000	0.000000	0.000000	0.000000	0.000000	0.000000	0.000000	
3	0.033333	0.000000	0.000000	0.000000	0.000000	0.000000	0.000000	0.000000	0.000000	0.000000	-1334.798868	598.415641	11.010714	-1265.231173	488.475326	-41.373593	0.000000	0.000000	0.000000	0.000000	0.000000	0.000000	-1262.228251	101.432035	-71.736472	0.000000	0.000000	0.000000	0.000000	0.000000	0.000000	0.000000	0.000000	0.000000	0.000000	0.000000	0.000000	0.000000	0.000000	0.000000	
4	0.050000	0.000000	0.000000	0.000000	0.000000	0.000000	0.000000	0.000000	0.000000	0.000000	-1308.439885	595.412718	7.840963	-1238.204874	486.306549	-44.877002	-1293.091617	192.020185	-18.351191	0.000000	0.000000	0.000000	-1188.656660	100.097403	-70.735498	0.000000	0.000000	0.000000	0.000000	0.000000	0.000000	0.000000	0.000000	0.000000	0.000000	0.000000	0.000000	0.000000	0.000000	0.000000	
5	0.066667	0.000000	0.000000	0.000000	0.000000	0.000000	0.000000	0.000000	0.000000	0.000000	-1284.416509	590.574677	3.837067	-1212.012720	482.302653	-48.380411	-1233.867320	184.346050	-22.521916	0.000000	0.000000	0.000000	-1118.588478	102.433009	-70.235011	0.000000	0.000000	0.000000	0.000000	0.000000	0.000000	0.000000	0.000000	0.000000	0.000000	0.000000	0.000000	0.000000	0.000000	0.000000	
6	0.083333	0.000000	0.000000	0.000000	0.000000	0.000000	0.000000	0.000000	0.000000	0.000000	-1261.727764	583.401030	1.167803	-1187.822515	476.630467	-52.384308	-1178.146432	178.006548	-24.857522	-1144.446974	83.247673	-73.905249	-1051.523218	108.939340	-70.568669	0.000000	0.000000	0.000000	0.000000	0.000000	0.000000	0.000000	0.000000	0.000000	0.000000	0.000000	0.000000	0.000000	0.000000	0.000000	
7	0.100000	0.000000	0.000000	0.000000	0.000000	0.000000	0.000000	0.000000	0.000000	0.000000	-1240.039993	574.392264	0.166829	-1165.300599	470.124136	-56.388204	-1124.927980	172.668020	-27.693615	-1080.718294	84.582305	-76.574513	-988.128196	118.114935	-71.402814	0.000000	0.000000	0.000000	0.000000	0.000000	0.000000	0.000000	0.000000	0.000000	0.000000	0.000000	0.000000	0.000000	0.000000	0.000000	
8	0.116667	0.000000	0.000000	0.000000	0.000000	0.000000	0.000000	0.000000	0.000000	0.000000	-1218.519052	564.549353	-1.000974	-1142.945512	462.450002	-59.557955	-1073.044159	169.831927	-30.362879	-1019.158391	86.917912	-78.743290	-929.571215	130.627111	-73.237933	0.000000	0.000000	0.000000	0.000000	0.000000	0.000000	0.000000	0.000000	0.000000	0.000000	0.000000	0.000000	0.000000	0.000000	0.000000	
9	0.133333	0.000000	0.000000	0.000000	-1235.201952	862.839613	-96.093507	0.000000	0.000000	0.000000	-1194.495675	555.040099	-0.500487	-1119.923110	454.775867	-61.726732	-1023.495945	170.499243	-31.363853	-962.603358	92.089611	-80.578409	-876.519592	144.974405	-77.075000	0.000000	0.000000	0.000000	0.000000	0.000000	0.000000	0.000000	0.000000	0.000000	0.000000	0.000000	0.000000	0.000000	0.000000	0.000000	
10	0.150000	0.000000	0.000000	0.000000	-1208.509311	854.998650	-97.594968	0.000000	0.000000	0.000000	-1168.470350	545.530846	-2.001948	-1095.232417	447.769049	-63.561851	-977.784798	173.335336	-31.530682	-911.553683	100.097403	-82.413528	-829.807470	157.486581	-81.913041	0.000000	0.000000	0.000000	0.000000	0.000000	0.000000	0.000000	0.000000	0.000000	0.000000	0.000000	0.000000	0.000000	0.000000	0.000000	
11	0.166667	0.000000	0.000000	0.000000	-1181.816671	847.658174	-96.427165	0.000000	0.000000	0.000000	-1141.777709	541.360121	-0.500487	-1067.705631	442.764179	-65.063312	-938.746810	174.336310	-32.031169	-868.678628	103.433983	-83.247673	-788.267048	167.329492	-87.251570	0.000000	0.000000	0.000000	0.000000	0.000000	0.000000	0.000000	0.000000	0.000000	0.000000	0.000000	0.000000	0.000000	0.000000	0.000000	
12	0.183333	0.000000	0.000000	0.000000	-1154.957201	839.650382	-100.431061	0.000000	0.000000	0.000000	-1113.083121	538.524028	0.834145	-1038.010068	441.095889	-65.563799	-907.049300	172.167533	-33.532630	-838.482579	99.930574	-84.081818	-757.403682	163.158767	-88.252544	0.000000	0.000000	0.000000	0.000000	0.000000	0.000000	0.000000	0.000000	0.000000	0.000000	0.000000	0.000000	0.000000	0.000000	0.000000	
13	0.200000	0.000000	0.000000	0.000000	-1127.764073	835.312827	-100.931548	0.000000	0.000000	0.000000	-1080.384636	537.189396	0.166829	-1006.312557	441.429547	-66.064286	-881.023975	168.497295	-34.366775	-812.957741	95.426191	-84.749134	-731.545186	154.483659	-91.422295	0.000000	0.000000	0.000000	0.000000	0.000000	0.000000	0.000000	0.000000	0.000000	0.000000	0.000000	0.000000	0.000000	0.000000	0.000000	
14	0.216667	0.000000	0.000000	0.000000	-1099.903629	833.477708	-101.265206	0.000000	0.000000	0.000000	-1046.518348	537.189396	-0.166829	-973.447243	440.762231	-65.730628	-858.668888	164.159741	-34.366775	-794.773379	87.418399	-87.251570	-711.692535	142.471970	-95.593020	0.000000	0.000000	0.000000	0.000000	0.000000	0.000000	0.000000	0.000000	0.000000	0.000000	0.000000	0.000000	0.000000	0.000000	0.000000	
15	0.233333	0.000000	0.000000	0.000000	-1071.375869	831.809418	-102.599838	0.000000	0.000000	0.000000	-1013.819863	538.690857	1.334632	-940.915588	439.427599	-64.896483	-838.983066	158.153897	-34.700433	-780.926572	77.241829	-84.915963	-697.178411	128.958821	-99.430087	0.000000	0.000000	0.000000	0.000000	0.000000	0.000000	0.000000	0.000000	0.000000	0.000000	0.000000	0.000000	0.000000	0.000000	0.000000	
16	0.250000	0.000000	0.000000	0.000000	-1042.347623	829.640641	-103.100325	0.000000	0.000000	0.000000	-981.788694	540.025489	2.001948	-909.718564	437.926138	-63.561851	-821.632849	150.646591	-33.198972	-770.916832	65.897457	-87.418399	-686.334526	114.111039	-103.433983	0.000000	0.000000	0.000000	0.000000	0.000000	0.000000	0.000000	0.000000	0.000000	0.000000	0.000000	0.000000	0.000000	0.000000	0.000000	
17	0.266667	0.000000	0.000000	0.000000	-1014.153521	828.306009	-102.266180	0.000000	0.000000	0.000000	-952.259960	540.525976	2.335606	-881.524462	437.592480	-62.060390	-802.280684	149.311959	-36.368723	-761.908065	67.899405	-93.257414	-667.482849	100.597890	-105.102273	0.000000	0.000000	0.000000	0.000000	0.000000	0.000000	0.000000	0.000000	0.000000	0.000000	0.000000	0.000000	0.000000	0.000000	0.000000	
